<svg width="25" height="26" viewBox="0 0 25 26" fill="none" xmlns="http://www.w3.org/2000/svg">
<path d="M15.9219 13.6641C15.9219 13.4776 15.8478 13.2987 15.7159 13.1669C15.5841 13.035 15.4052 12.9609 15.2188 12.9609H8.64063C8.45415 12.9609 8.2753 13.035 8.14344 13.1669C8.01158 13.2987 7.9375 13.4776 7.9375 13.6641C7.9375 13.8505 8.01158 14.0294 8.14344 14.1612C8.2753 14.2931 8.45415 14.3672 8.64063 14.3672H15.2188C15.4052 14.3672 15.5841 14.2931 15.7159 14.1612C15.8478 14.0294 15.9219 13.8505 15.9219 13.6641ZM8.63672 16.2227C8.45024 16.2227 8.2714 16.2967 8.13953 16.4286C8.00767 16.5605 7.93359 16.7393 7.93359 16.9258C7.93359 17.1123 8.00767 17.2911 8.13953 17.423C8.2714 17.5548 8.45024 17.6289 8.63672 17.6289H12.4023C12.5888 17.6289 12.7677 17.5548 12.8995 17.423C13.0314 17.2911 13.1055 17.1123 13.1055 16.9258C13.1055 16.7393 13.0314 16.5605 12.8995 16.4286C12.7677 16.2967 12.5888 16.2227 12.4023 16.2227H8.63672Z" fill="#171616"/>
<path d="M12.5234 21.8984H6.0625C5.62266 21.8984 5.26562 21.5406 5.26562 21.1015V10.239H7.79063C8.37329 10.2384 8.93191 10.0067 9.34392 9.59465C9.75592 9.18264 9.98766 8.62402 9.98828 8.04136V5.51558H18.9766C19.4164 5.51558 19.7734 5.87339 19.7734 6.31245V12.7968C19.7734 12.9833 19.8475 13.1621 19.9794 13.294C20.1112 13.4259 20.2901 13.5 20.4766 13.5C20.663 13.5 20.8419 13.4259 20.9737 13.294C21.1056 13.1621 21.1797 12.9833 21.1797 12.7968V6.31245C21.1791 5.72834 20.9468 5.16832 20.5337 4.75529C20.1207 4.34226 19.5607 4.10995 18.9766 4.10933H18.4258V3.55933C18.4252 2.97625 18.1933 2.41723 17.781 2.00493C17.3687 1.59263 16.8096 1.36073 16.2266 1.36011H3.30859C2.72545 1.36052 2.16631 1.59236 1.75397 2.0047C1.34162 2.41704 1.10979 2.97618 1.10938 3.55933V18.3546C1.11 18.9377 1.3419 19.4967 1.7542 19.909C2.1665 20.3213 2.72552 20.5532 3.30859 20.5539H3.85938V21.1015C3.86 21.6856 4.09231 22.2456 4.50534 22.6587C4.91837 23.0717 5.47839 23.304 6.0625 23.3046H12.5234C12.7099 23.3046 12.8888 23.2306 13.0206 23.0987C13.1525 22.9668 13.2266 22.788 13.2266 22.6015C13.2266 22.415 13.1525 22.2362 13.0206 22.1043C12.8888 21.9725 12.7099 21.8984 12.5234 21.8984ZM8.58125 8.04214C8.58125 8.47808 8.22578 8.83354 7.78984 8.83354H5.26562V8.44526C5.26562 8.34058 5.31094 8.23355 5.38047 8.16011L7.89531 5.63745C7.97282 5.55987 8.07784 5.51606 8.1875 5.51558H8.58125V8.04214ZM3.30859 19.1476C2.87109 19.1476 2.51484 18.7914 2.51484 18.3539V3.55933C2.51484 3.12964 2.87813 2.76558 3.30859 2.76558H16.2266C16.6641 2.76558 17.0195 3.12183 17.0195 3.55933V4.10933H8.1875C7.70234 4.10933 7.24531 4.29917 6.90078 4.64448L4.37656 7.17651C4.04572 7.51607 3.8602 7.97118 3.85938 8.44526V19.1476H3.30859Z" fill="black"/>
<path d="M18.8961 14.6516C16.1422 14.6516 13.9016 16.8922 13.9016 19.6461C13.9016 22.4 16.1422 24.6407 18.8961 24.6407C21.65 24.6407 23.8907 22.4 23.8907 19.6461C23.8907 16.8922 21.65 14.6516 18.8961 14.6516ZM18.8961 23.2344C16.9172 23.2344 15.3079 21.6243 15.3079 19.6461C15.3079 17.668 16.918 16.0579 18.8961 16.0579C20.8743 16.0579 22.4844 17.668 22.4844 19.6461C22.4834 20.5975 22.105 21.5096 21.4323 22.1823C20.7596 22.855 19.8475 23.2334 18.8961 23.2344Z" fill="black"/>
<path d="M19.9141 18.3679L18.3735 19.6085L17.9899 19.1194C17.8721 18.9808 17.7053 18.8931 17.5243 18.8748C17.3433 18.8565 17.1623 18.909 17.0191 19.0212C16.8759 19.1334 16.7818 19.2967 16.7564 19.4769C16.731 19.657 16.7763 19.84 16.8829 19.9874L17.7063 21.0374C17.7639 21.1104 17.8353 21.1714 17.9165 21.2167C17.9977 21.262 18.0871 21.2907 18.1794 21.3013C18.2718 21.3119 18.3654 21.3042 18.4547 21.2784C18.5441 21.2527 18.6275 21.2096 18.7001 21.1515L20.7954 19.4632C20.9354 19.3447 21.0235 19.1761 21.041 18.9935C21.0585 18.8109 21.0039 18.6287 20.8889 18.4858C20.7739 18.3428 20.6076 18.2505 20.4255 18.2285C20.2434 18.2065 20.0599 18.2565 19.9141 18.3679Z" fill="black"/>
</svg>
