<svg width="25" height="26" viewBox="0 0 25 26" fill="none" xmlns="http://www.w3.org/2000/svg">
<g clip-path="url(#clip0_31_1543)">
<path d="M9.63535 8.8334H1.82285C0.817676 8.8334 0 8.01572 0 7.01035V2.32285C0 1.31768 0.817676 0.5 1.82285 0.5H9.63535C10.6407 0.5 11.4584 1.31768 11.4584 2.32285V7.01035C11.4584 8.01572 10.6407 8.8334 9.63535 8.8334ZM1.82285 2.0625C1.75382 2.06255 1.68763 2.09 1.63881 2.13881C1.59 2.18763 1.56255 2.25382 1.5625 2.32285V7.01035C1.56251 7.07942 1.58994 7.14565 1.63876 7.1945C1.68757 7.24336 1.75379 7.27083 1.82285 7.2709H9.63535C9.70444 7.27087 9.7707 7.24341 9.81956 7.19456C9.86841 7.1457 9.89587 7.07944 9.8959 7.01035V2.32285C9.89583 2.25379 9.86836 2.18757 9.8195 2.13876C9.77065 2.08994 9.70442 2.06251 9.63535 2.0625H1.82285ZM9.63535 25.5H1.82285C0.817676 25.5 0 24.6823 0 23.6771V12.7396C0 11.7343 0.817676 10.9166 1.82285 10.9166H9.63535C10.6407 10.9166 11.4584 11.7343 11.4584 12.7396V23.6771C11.4584 24.6823 10.6407 25.5 9.63535 25.5ZM1.82285 12.4791C1.75379 12.4792 1.68757 12.5066 1.63876 12.5555C1.58994 12.6044 1.56251 12.6706 1.5625 12.7396V23.6771C1.56255 23.7462 1.59 23.8124 1.63881 23.8612C1.68763 23.91 1.75382 23.9374 1.82285 23.9375H9.63535C9.70442 23.9375 9.77065 23.9101 9.8195 23.8612C9.86836 23.8124 9.89583 23.7462 9.8959 23.6771V12.7396C9.89587 12.6706 9.86841 12.6043 9.81956 12.5554C9.7707 12.5066 9.70444 12.4791 9.63535 12.4791H1.82285ZM23.1771 25.5H15.3646C14.3593 25.5 13.5416 24.6823 13.5416 23.6771V18.9896C13.5416 17.9843 14.3593 17.1666 15.3646 17.1666H23.1771C24.1823 17.1666 25 17.9843 25 18.9896V23.6771C25 24.6823 24.1823 25.5 23.1771 25.5ZM15.3646 18.7291C15.2956 18.7291 15.2293 18.7566 15.1804 18.8054C15.1316 18.8543 15.1041 18.9206 15.1041 18.9896V23.6771C15.1042 23.7462 15.1316 23.8124 15.1805 23.8612C15.2294 23.9101 15.2956 23.9375 15.3646 23.9375H23.1771C23.2462 23.9374 23.3124 23.91 23.3612 23.8612C23.41 23.8124 23.4374 23.7462 23.4375 23.6771V18.9896C23.4375 18.9206 23.4101 18.8544 23.3612 18.8055C23.3124 18.7566 23.2462 18.7292 23.1771 18.7291H15.3646ZM23.1771 15.0834H15.3646C14.3593 15.0834 13.5416 14.2657 13.5416 13.2604V2.32285C13.5416 1.31768 14.3593 0.5 15.3646 0.5H23.1771C24.1823 0.5 25 1.31768 25 2.32285V13.2604C25 14.2657 24.1823 15.0834 23.1771 15.0834ZM15.3646 2.0625C15.2956 2.06251 15.2294 2.08994 15.1805 2.13876C15.1316 2.18757 15.1042 2.25379 15.1041 2.32285V13.2604C15.1041 13.3294 15.1316 13.3957 15.1804 13.4446C15.2293 13.4934 15.2956 13.5209 15.3646 13.5209H23.1771C23.2462 13.5208 23.3124 13.4934 23.3612 13.4445C23.4101 13.3956 23.4375 13.3294 23.4375 13.2604V2.32285C23.4374 2.25382 23.41 2.18763 23.3612 2.13881C23.3124 2.09 23.2462 2.06255 23.1771 2.0625H15.3646Z" fill="#171616"/>
</g>
<defs>
<clipPath id="clip0_31_1543">
<rect width="25" height="25" fill="white" transform="translate(0 0.5)"/>
</clipPath>
</defs>
</svg>
