<svg width="14" height="15" viewBox="0 0 14 15" fill="none" xmlns="http://www.w3.org/2000/svg">
<path fill-rule="evenodd" clip-rule="evenodd" d="M2.59674 9.73999C2.74526 9.73999 2.8877 9.79899 2.99272 9.90401C3.09774 10.009 3.15674 10.1515 3.15674 10.3V11.42C3.15674 11.5685 3.21574 11.711 3.32076 11.816C3.42578 11.921 3.56822 11.98 3.71674 11.98H10.4367C10.5853 11.98 10.7277 11.921 10.8327 11.816C10.9377 11.711 10.9967 11.5685 10.9967 11.42V10.3C10.9967 10.1515 11.0557 10.009 11.1608 9.90401C11.2658 9.79899 11.4082 9.73999 11.5567 9.73999C11.7053 9.73999 11.8477 9.79899 11.9527 9.90401C12.0577 10.009 12.1167 10.1515 12.1167 10.3V11.42C12.1167 11.8656 11.9397 12.2929 11.6247 12.6079C11.3096 12.923 10.8823 13.1 10.4367 13.1H3.71674C3.27118 13.1 2.84386 12.923 2.5288 12.6079C2.21374 12.2929 2.03674 11.8656 2.03674 11.42V10.3C2.03674 10.1515 2.09574 10.009 2.20076 9.90401C2.30578 9.79899 2.44822 9.73999 2.59674 9.73999Z" fill="#171616"/>
<path fill-rule="evenodd" clip-rule="evenodd" d="M3.88082 6.54401C3.98583 6.43902 4.12825 6.38005 4.27674 6.38005C4.42523 6.38005 4.56764 6.43902 4.67266 6.54401L7.07674 8.94809L9.48082 6.54401C9.53248 6.49052 9.59427 6.44786 9.66259 6.41851C9.73091 6.38916 9.8044 6.37371 9.87875 6.37307C9.95311 6.37242 10.0268 6.38659 10.0957 6.41475C10.1645 6.44291 10.227 6.48449 10.2796 6.53707C10.3322 6.58965 10.3738 6.65217 10.4019 6.72099C10.4301 6.78982 10.4442 6.86356 10.4436 6.93791C10.443 7.01227 10.4275 7.08575 10.3982 7.15407C10.3688 7.2224 10.3261 7.28419 10.2727 7.33585L7.47266 10.1358C7.36764 10.2408 7.22523 10.2998 7.07674 10.2998C6.92825 10.2998 6.78583 10.2408 6.68082 10.1358L3.88082 7.33585C3.77583 7.23083 3.71686 7.08842 3.71686 6.93993C3.71686 6.79144 3.77583 6.64902 3.88082 6.54401Z" fill="#171616"/>
<path fill-rule="evenodd" clip-rule="evenodd" d="M7.07672 2.45996C7.22524 2.45996 7.36768 2.51896 7.4727 2.62398C7.57772 2.729 7.63672 2.87144 7.63672 3.01996V9.73996C7.63672 9.88848 7.57772 10.0309 7.4727 10.1359C7.36768 10.241 7.22524 10.3 7.07672 10.3C6.9282 10.3 6.78576 10.241 6.68074 10.1359C6.57572 10.0309 6.51672 9.88848 6.51672 9.73996V3.01996C6.51672 2.87144 6.57572 2.729 6.68074 2.62398C6.78576 2.51896 6.9282 2.45996 7.07672 2.45996Z" fill="#171616"/>
</svg>
