<svg width="30" height="30" viewBox="0 0 30 30" fill="none" xmlns="http://www.w3.org/2000/svg">
<circle cx="15" cy="15" r="15" fill="#F5F7FA"/>
<path d="M19.5938 9.75H17.1875V9.3125C17.1875 8.58762 16.5999 8 15.875 8H14.125C13.4001 8 12.8125 8.58762 12.8125 9.3125V9.75H10.4062C9.8022 9.75 9.3125 10.2397 9.3125 10.8438V11.7188C9.3125 11.9604 9.50836 12.1562 9.75 12.1562H20.25C20.4916 12.1562 20.6875 11.9604 20.6875 11.7188V10.8438C20.6875 10.2397 20.1978 9.75 19.5938 9.75ZM13.6875 9.3125C13.6875 9.07133 13.8838 8.875 14.125 8.875H15.875C16.1162 8.875 16.3125 9.07133 16.3125 9.3125V9.75H13.6875V9.3125ZM10.1428 13.0312C10.1243 13.0313 10.106 13.035 10.0889 13.0423C10.0719 13.0496 10.0566 13.0602 10.0438 13.0736C10.0311 13.087 10.0211 13.1029 10.0147 13.1202C10.0082 13.1375 10.0053 13.156 10.0062 13.1745L10.3671 20.7498C10.4005 21.4509 10.9764 22 11.678 22H18.322C19.0236 22 19.5995 21.4509 19.6329 20.7498L19.9938 13.1745C19.9947 13.156 19.9918 13.1375 19.9853 13.1202C19.9789 13.1029 19.9689 13.087 19.9562 13.0736C19.9434 13.0602 19.9281 13.0496 19.9111 13.0423C19.894 13.035 19.8757 13.0313 19.8572 13.0312H10.1428ZM16.75 14.125C16.75 13.8833 16.9458 13.6875 17.1875 13.6875C17.4292 13.6875 17.625 13.8833 17.625 14.125V19.8125C17.625 20.0542 17.4292 20.25 17.1875 20.25C16.9458 20.25 16.75 20.0542 16.75 19.8125V14.125ZM14.5625 14.125C14.5625 13.8833 14.7583 13.6875 15 13.6875C15.2417 13.6875 15.4375 13.8833 15.4375 14.125V19.8125C15.4375 20.0542 15.2417 20.25 15 20.25C14.7583 20.25 14.5625 20.0542 14.5625 19.8125V14.125ZM12.375 14.125C12.375 13.8833 12.5708 13.6875 12.8125 13.6875C13.0542 13.6875 13.25 13.8833 13.25 14.125V19.8125C13.25 20.0542 13.0542 20.25 12.8125 20.25C12.5708 20.25 12.375 20.0542 12.375 19.8125V14.125Z" fill="#171616"/>
</svg>
