<svg width="25" height="26" viewBox="0 0 25 26" fill="none" xmlns="http://www.w3.org/2000/svg">
<path d="M23.4375 7.53125C23.4375 4.51562 20.9844 2.0625 17.9688 2.0625C15.7617 2.0625 13.8609 3.37891 12.9977 5.26562L11.2609 4.47656C11.1594 4.43012 11.0491 4.40608 10.9375 4.40608C10.8259 4.40608 10.7156 4.43012 10.6141 4.47656L2.02031 8.38281C1.88383 8.44489 1.76809 8.54493 1.68691 8.67099C1.60573 8.79705 1.56254 8.94381 1.5625 9.09375V19.25C1.56254 19.3999 1.60573 19.5467 1.68691 19.6728C1.76809 19.7988 1.88383 19.8989 2.02031 19.9609L10.6141 23.8672C10.7156 23.9137 10.8259 23.9377 10.9375 23.9377C11.0491 23.9377 11.1594 23.9137 11.2609 23.8672L19.8547 19.9609C19.9912 19.8989 20.1069 19.7988 20.1881 19.6728C20.2693 19.5467 20.3125 19.3999 20.3125 19.25V12.4648C22.1562 11.5852 23.4375 9.70703 23.4375 7.53125ZM10.9375 6.04609L12.5578 6.78203C12.5213 7.03041 12.502 7.281 12.5 7.53203C12.5 8.80234 12.9398 9.97031 13.6695 10.9L10.9375 12.1422L4.23203 9.09375L10.9375 6.04609ZM3.125 10.307L10.1562 13.5023V21.943L3.125 18.7469V10.307ZM18.75 18.7469L11.7188 21.9422V13.5039L14.9016 12.057C15.8058 12.6727 16.8748 13.0014 17.9688 13C18.2344 13 18.4937 12.9742 18.75 12.9375V18.7469ZM17.9688 11.4375C15.8148 11.4375 14.0625 9.68516 14.0625 7.53125C14.0625 5.37734 15.8148 3.625 17.9688 3.625C20.1227 3.625 21.875 5.37734 21.875 7.53125C21.875 9.68516 20.1227 11.4375 17.9688 11.4375Z" fill="#171616"/>
<path d="M19.8218 4.46168C19.7266 4.42356 19.6247 4.40458 19.5221 4.40582C19.4195 4.40706 19.3182 4.42849 19.2239 4.4689C19.1296 4.50931 19.0441 4.5679 18.9725 4.64133C18.9008 4.71475 18.8443 4.80158 18.8062 4.89684L17.6836 7.70387L16.9586 6.97887C16.8865 6.90425 16.8003 6.84474 16.705 6.80379C16.6096 6.76285 16.5071 6.7413 16.4034 6.7404C16.2997 6.73949 16.1968 6.75926 16.1008 6.79854C16.0048 6.83782 15.9175 6.89583 15.8442 6.96919C15.7708 7.04254 15.7128 7.12977 15.6735 7.22578C15.6343 7.3218 15.6145 7.42467 15.6154 7.5284C15.6163 7.63214 15.6378 7.73465 15.6788 7.82997C15.7197 7.92528 15.7792 8.01149 15.8539 8.08356L17.4164 9.64606C17.5077 9.73756 17.6204 9.80496 17.7442 9.84219C17.8681 9.87942 17.9992 9.88534 18.1259 9.85939C18.2526 9.83345 18.3709 9.77647 18.4701 9.69356C18.5693 9.61065 18.6464 9.5044 18.6945 9.38434L20.257 5.47809C20.2951 5.38283 20.3141 5.281 20.3129 5.1784C20.3116 5.07581 20.2902 4.97446 20.2498 4.88015C20.2094 4.78584 20.1508 4.70041 20.0773 4.62874C20.0039 4.55708 19.9171 4.49979 19.8218 4.46168Z" fill="black"/>
</svg>
