<svg width="25" height="26" viewBox="0 0 25 26" fill="none" xmlns="http://www.w3.org/2000/svg">
<path fill-rule="evenodd" clip-rule="evenodd" d="M10.751 1.91676C11.3011 1.67019 11.8972 1.54272 12.5 1.54272C13.1028 1.54272 13.6989 1.67019 14.249 1.91676C15.0104 2.25842 15.5646 2.91676 16.0667 3.68551C16.5688 4.45426 17.1208 5.50113 17.8083 6.80634L22.2115 15.1615C22.7812 16.2428 23.2427 17.1199 23.5396 17.8407C23.8396 18.5699 24.0406 19.2949 23.925 20.0365C23.8377 20.5792 23.6382 21.0976 23.3392 21.5588C23.0402 22.0199 22.6483 22.4136 22.1885 22.7147C21.5698 23.1251 20.8271 23.2772 20.0146 23.347C19.2094 23.4168 18.1813 23.4168 16.9021 23.4168H8.09792C6.81875 23.4168 5.79063 23.4168 4.98542 23.347C4.17292 23.2761 3.43021 23.1251 2.81146 22.7147C2.35183 22.4137 1.96002 22.0201 1.66104 21.5592C1.36205 21.0982 1.16246 20.58 1.075 20.0376C0.959377 19.2949 1.16042 18.5688 1.46042 17.8407C1.75625 17.1209 2.21875 16.2428 2.78854 15.1626L7.19167 6.80634C7.87917 5.50113 8.43125 4.45426 8.93229 3.68551C9.43542 2.91572 9.98854 2.25842 10.751 1.91572V1.91676ZM13.3938 3.81572C13.1125 3.69018 12.808 3.6253 12.5 3.6253C12.192 3.6253 11.8875 3.69018 11.6063 3.81572C11.4073 3.9053 11.125 4.13863 10.6771 4.82405C10.2354 5.50113 9.72917 6.46051 9.00833 7.82717L4.65729 16.0855C4.05625 17.2261 3.64063 18.0157 3.38646 18.6345C3.13125 19.2553 3.10729 19.547 3.13333 19.7168C3.21042 20.2126 3.50209 20.673 3.96354 20.9793C4.14063 21.0959 4.45729 21.2095 5.16563 21.2709C5.86979 21.3334 6.80729 21.3334 8.14792 21.3334H16.851C18.1927 21.3334 19.1302 21.3334 19.8344 21.2709C20.5427 21.2095 20.8594 21.0959 21.0365 20.9793C21.4979 20.673 21.7896 20.2126 21.8667 19.7168C21.8927 19.547 21.8688 19.2553 21.6135 18.6334C21.3594 18.0157 20.9437 17.2261 20.3427 16.0855L15.9917 7.82717C15.2719 6.46051 14.7646 5.50217 14.3229 4.82405C13.875 4.13863 13.5938 3.9053 13.3938 3.81572ZM12.4948 8.83342C12.6317 8.83274 12.7673 8.85904 12.8941 8.91082C13.0208 8.9626 13.136 9.03885 13.2333 9.1352C13.3305 9.23156 13.4078 9.34613 13.4607 9.47237C13.5136 9.59861 13.5411 9.73404 13.5417 9.87092L13.5646 15.0793C13.5651 15.2161 13.5387 15.3516 13.4869 15.4782C13.435 15.6048 13.3588 15.7199 13.2624 15.817C13.1661 15.9142 13.0516 15.9914 12.9254 16.0442C12.7992 16.0971 12.6639 16.1245 12.5271 16.1251C12.3903 16.1256 12.2547 16.0992 12.1281 16.0474C12.0015 15.9956 11.8864 15.9193 11.7893 15.8229C11.6922 15.7266 11.615 15.6121 11.5621 15.4859C11.5093 15.3597 11.4818 15.2244 11.4813 15.0876L11.4583 9.87926C11.4578 9.74246 11.4842 9.6069 11.536 9.48031C11.5879 9.35372 11.6641 9.23858 11.7605 9.14147C11.8568 9.04435 11.9713 8.96716 12.0975 8.91431C12.2237 8.86145 12.359 8.83397 12.4958 8.83342H12.4948ZM12.5 17.1668C12.7763 17.1668 13.0412 17.2765 13.2366 17.4719C13.4319 17.6672 13.5417 17.9322 13.5417 18.2084V18.2188C13.5417 18.4951 13.4319 18.7601 13.2366 18.9554C13.0412 19.1508 12.7763 19.2605 12.5 19.2605C12.2237 19.2605 11.9588 19.1508 11.7634 18.9554C11.5681 18.7601 11.4583 18.4951 11.4583 18.2188V18.2084C11.4583 17.9322 11.5681 17.6672 11.7634 17.4719C11.9588 17.2765 12.2237 17.1668 12.5 17.1668Z" fill="#171616"/>
</svg>
