<svg width="25" height="26" viewBox="0 0 25 26" fill="none" xmlns="http://www.w3.org/2000/svg">
<path d="M22.6562 20.8125H18.75V2.84375C18.75 2.63655 18.6677 2.43784 18.5212 2.29132C18.3747 2.14481 18.176 2.0625 17.9688 2.0625C17.7615 2.0625 17.5628 2.14481 17.4163 2.29132C17.2698 2.43784 17.1875 2.63655 17.1875 2.84375V20.0312H16.4062V15.3133C16.4062 14.6586 16.2047 14.0305 15.8242 13.4977L13.0555 9.62109C12.7659 9.21674 12.3843 8.88716 11.9421 8.6596C11.4999 8.43204 11.0098 8.31306 10.5125 8.3125H6.25C4.95781 8.3125 3.90625 9.36406 3.90625 10.6562V13.7812C3.69905 13.7812 3.50034 13.8636 3.35382 14.0101C3.20731 14.1566 3.125 14.3553 3.125 14.5625V18.1219C2.19531 18.6641 1.5625 19.6609 1.5625 20.8125C1.5625 22.5359 2.96406 23.9375 4.6875 23.9375C6.13906 23.9375 7.35156 22.9375 7.70156 21.5938H10.9375C10.9375 22.8859 11.9891 23.9375 13.2812 23.9375C14.5734 23.9375 15.625 22.8859 15.625 21.5938H17.1875C17.1875 21.801 17.2698 21.9997 17.4163 22.1462C17.5628 22.2927 17.7615 22.375 17.9688 22.375H22.6562C22.8635 22.375 23.0622 22.2927 23.2087 22.1462C23.3552 21.9997 23.4375 21.801 23.4375 21.5938C23.4375 21.3865 23.3552 21.1878 23.2087 21.0413C23.0622 20.8948 22.8635 20.8125 22.6562 20.8125ZM5.46875 10.6562C5.46875 10.2258 5.81953 9.875 6.25 9.875H10.5125C11.0164 9.875 11.4914 10.1195 11.7836 10.5289L14.5531 14.4055C14.743 14.6719 14.8438 14.9859 14.8438 15.3133V16.125H14.3859L12.4 14.1391C12.4789 13.9936 12.509 13.8266 12.4858 13.6627C12.4626 13.4988 12.3873 13.3467 12.2711 13.2289C12.1246 13.0824 11.9259 13.0002 11.7188 13.0002C11.5116 13.0002 11.3129 13.0824 11.1664 13.2289L10.3852 14.0102C10.2759 14.1194 10.2016 14.2586 10.1714 14.4101C10.1413 14.5617 10.1568 14.7187 10.2159 14.8614C10.275 15.0042 10.3751 15.1262 10.5035 15.212C10.632 15.2979 10.783 15.3437 10.9375 15.3438C11.0625 15.3438 11.182 15.3031 11.2953 15.2437L12.1766 16.125H9.375V14.5625C9.375 14.3553 9.29269 14.1566 9.14618 14.0101C8.99966 13.8636 8.80095 13.7812 8.59375 13.7812H5.46875V10.6562ZM4.6875 22.375C3.82578 22.375 3.125 21.6742 3.125 20.8125C3.125 19.9508 3.82578 19.25 4.6875 19.25C5.54922 19.25 6.25 19.9508 6.25 20.8125C6.25 21.6742 5.54922 22.375 4.6875 22.375ZM7.70156 20.0312C7.35234 18.6875 6.13906 17.6875 4.6875 17.6875V15.3438H7.8125V16.9062C7.8125 17.1135 7.89481 17.3122 8.04132 17.4587C8.18784 17.6052 8.38655 17.6875 8.59375 17.6875H14.8438V19.8594C14.4168 19.469 13.8597 19.2517 13.2812 19.25C12.5914 19.25 11.9766 19.5547 11.5469 20.0312H7.70156ZM13.2812 22.375C12.8508 22.375 12.5 22.0242 12.5 21.5938C12.5 21.1633 12.8508 20.8125 13.2812 20.8125C13.4824 20.8215 13.6723 20.9077 13.8115 21.0533C13.9507 21.1988 14.0283 21.3924 14.0283 21.5938C14.0283 21.7951 13.9507 21.9887 13.8115 22.1342C13.6723 22.2798 13.4824 22.366 13.2812 22.375Z" fill="#171616"/>
</svg>
