<svg width="25" height="26" viewBox="0 0 25 26" fill="none" xmlns="http://www.w3.org/2000/svg">
<path d="M9.125 2.4335C11.1066 0.897168 13.8934 0.897168 15.875 2.4335L22.125 7.28037C22.7756 7.78282 23.3025 8.42752 23.6654 9.16507C24.0283 9.90262 24.2176 10.7134 24.2188 11.5354V12.2187C24.2188 12.4259 24.1364 12.6246 23.9899 12.7711C23.8434 12.9176 23.6447 12.9999 23.4375 12.9999C23.2303 12.9999 23.0316 12.9176 22.8851 12.7711C22.7386 12.6246 22.6562 12.4259 22.6562 12.2187V11.5354C22.6562 10.3597 22.1094 9.2456 21.1672 8.51514L14.9172 3.66826C14.2248 3.13365 13.3747 2.84365 12.5 2.84365C11.6253 2.84365 10.7752 3.13365 10.0828 3.66826L8.10625 5.20107C7.94234 5.32528 7.73607 5.37985 7.53219 5.35294C7.3283 5.32603 7.14325 5.21982 7.01718 5.05734C6.89111 4.89487 6.83418 4.68923 6.85876 4.48506C6.88333 4.28088 6.98742 4.09462 7.14844 3.9667L9.125 2.4335ZM5.06836 6.44404C4.93383 6.30953 4.75485 6.22872 4.56499 6.21679C4.37512 6.20485 4.18742 6.2626 4.03711 6.3792L2.87539 7.28037C2.22476 7.78278 1.69776 8.42746 1.33478 9.16501C0.97179 9.90256 0.782446 10.7134 0.78125 11.5354V19.3108C0.78125 22.3069 3.23945 24.7187 6.25 24.7187H11.3281C11.5353 24.7187 11.734 24.6363 11.8806 24.4898C12.0271 24.3433 12.1094 24.1446 12.1094 23.9374C12.1094 23.7302 12.0271 23.5315 11.8806 23.385C11.734 23.2385 11.5353 23.1562 11.3281 23.1562H6.25V19.6405H11.3281C11.5353 19.6405 11.734 19.5582 11.8806 19.4117C12.0271 19.2652 12.1094 19.0665 12.1094 18.8593C12.1094 18.6521 12.0271 18.4534 11.8806 18.3069C11.734 18.1603 11.5353 18.078 11.3281 18.078H6.25V16.1249C6.25 15.7105 6.41462 15.3131 6.70765 15.02C7.00067 14.727 7.3981 14.5624 7.8125 14.5624H11.3281C11.5353 14.5624 11.734 14.4801 11.8806 14.3336C12.0271 14.1871 12.1094 13.9884 12.1094 13.7812C12.1094 13.574 12.0271 13.3752 11.8806 13.2287C11.734 13.0822 11.5353 12.9999 11.3281 12.9999H7.8125C6.9837 12.9999 6.18884 13.3291 5.60279 13.9152C5.01674 14.5012 4.6875 15.2961 4.6875 16.1249V22.8366C3.30469 22.2417 2.34375 20.8819 2.34375 19.3108V11.5354C2.34375 10.3597 2.89063 9.2456 3.83281 8.51514L4.99453 7.61397C5.08218 7.54603 5.15436 7.46023 5.20627 7.36224C5.25819 7.26426 5.28865 7.15634 5.29563 7.04568C5.30262 6.93501 5.28596 6.82412 5.24678 6.72039C5.20759 6.61665 5.14677 6.52245 5.06836 6.44404Z" fill="#171616"/>
<path d="M8.98438 9.09375C8.98438 8.88655 9.06669 8.68784 9.2132 8.54132C9.35971 8.39481 9.55842 8.3125 9.76562 8.3125H15.2344C15.4416 8.3125 15.6403 8.39481 15.7868 8.54132C15.9333 8.68784 16.0156 8.88655 16.0156 9.09375C16.0156 9.30095 15.9333 9.49966 15.7868 9.64618C15.6403 9.79269 15.4416 9.875 15.2344 9.875H9.76562C9.55842 9.875 9.35971 9.79269 9.2132 9.64618C9.06669 9.49966 8.98438 9.30095 8.98438 9.09375ZM19.7602 17.5258C19.8322 17.4512 19.9184 17.3916 20.0137 17.3507C20.1091 17.3098 20.2116 17.2882 20.3153 17.2873C20.419 17.2864 20.5219 17.3062 20.6179 17.3455C20.7139 17.3847 20.8012 17.4427 20.8745 17.5161C20.9479 17.5895 21.0059 17.6767 21.0452 17.7727C21.0845 17.8687 21.1042 17.9716 21.1033 18.0753C21.1024 18.179 21.0809 18.2816 21.0399 18.3769C20.999 18.4722 20.9395 18.5584 20.8648 18.6305L18.5211 20.9742C18.4378 21.0575 18.3368 21.1208 18.2255 21.1595C18.1143 21.1982 17.9958 21.2113 17.8788 21.1977C17.7618 21.1842 17.6494 21.1443 17.55 21.0812C17.4506 21.0181 17.3667 20.9333 17.3047 20.8332L16.5234 19.5711C16.4673 19.4839 16.4291 19.3863 16.4111 19.2842C16.393 19.182 16.3955 19.0773 16.4184 18.9761C16.4412 18.875 16.484 18.7793 16.5442 18.6949C16.6044 18.6104 16.6808 18.5388 16.769 18.4841C16.8572 18.4295 16.9554 18.393 17.0578 18.3767C17.1603 18.3605 17.2649 18.3647 17.3657 18.3893C17.4665 18.4139 17.5613 18.4584 17.6447 18.52C17.7282 18.5817 17.7985 18.6593 17.8516 18.7484L18.1137 19.1719L19.7602 17.5258Z" fill="black"/>
<path fill-rule="evenodd" clip-rule="evenodd" d="M16.4062 13.7812C15.5774 13.7812 14.7826 14.1105 14.1965 14.6965C13.6105 15.2826 13.2812 16.0774 13.2812 16.9062V21.5938C13.2812 22.4226 13.6105 23.2174 14.1965 23.8035C14.7826 24.3895 15.5774 24.7188 16.4062 24.7188H21.0938C21.9226 24.7188 22.7174 24.3895 23.3035 23.8035C23.8895 23.2174 24.2188 22.4226 24.2188 21.5938V16.9062C24.2188 16.0774 23.8895 15.2826 23.3035 14.6965C22.7174 14.1105 21.9226 13.7812 21.0938 13.7812H16.4062ZM14.8438 16.9062C14.8438 16.4918 15.0084 16.0944 15.3014 15.8014C15.5944 15.5084 15.9918 15.3438 16.4062 15.3438H21.0938C21.5082 15.3438 21.9056 15.5084 22.1986 15.8014C22.4916 16.0944 22.6562 16.4918 22.6562 16.9062V21.5938C22.6562 22.0082 22.4916 22.4056 22.1986 22.6986C21.9056 22.9916 21.5082 23.1562 21.0938 23.1562H16.4062C15.9918 23.1562 15.5944 22.9916 15.3014 22.6986C15.0084 22.4056 14.8438 22.0082 14.8438 21.5938V16.9062Z" fill="black"/>
</svg>
