<svg width="25" height="26" viewBox="0 0 25 26" fill="none" xmlns="http://www.w3.org/2000/svg">
<g clip-path="url(#clip0_31_1568)">
<path d="M22.9688 21.0118H6.60441C6.4032 21.0118 6.31699 20.7474 6.47456 20.6259L8.75256 18.8752H21.7685C22.694 18.8752 23.4615 18.1145 23.4794 17.1905L23.6253 9.68374C23.642 8.82798 23.0153 8.08492 22.1677 7.95822C21.7599 7.89722 21.378 8.1776 21.3169 8.58595C21.2558 8.99431 21.5376 9.37431 21.9463 9.43542C22.0526 9.45128 22.1311 9.54358 22.129 9.65052L21.9831 17.1614C21.9809 17.2769 21.8846 17.3796 21.7686 17.3796H9.09254L6.73117 7.17003L7.9297 7.34475C8.33832 7.40564 8.71933 7.12206 8.78049 6.7137C8.8416 6.30534 8.55983 5.92369 8.15105 5.86258L6.35582 5.59374L5.66954 2.92603C5.58466 2.59534 5.28639 2.36987 4.9447 2.36987H2.03106C1.61779 2.36987 1.28271 2.70479 1.28271 3.11769C1.28271 3.53058 1.61773 3.8655 2.03106 3.8655H4.36407L7.66016 17.8132L5.56047 19.4308C4.29373 20.4068 5.00618 22.5074 6.60436 22.5074H8.56886C8.4819 22.721 8.43415 22.9935 8.43415 23.2609C8.43415 24.4979 9.4477 25.5001 10.6936 25.5001C11.9394 25.5001 12.953 24.5 12.953 23.263C12.953 22.9955 12.9052 22.721 12.8183 22.5074H16.9053C16.8184 22.721 16.7706 22.9935 16.7706 23.2609C16.7706 24.4979 17.7842 25.5001 19.03 25.5001C20.2759 25.5001 21.2895 24.5 21.2895 23.263C21.2895 22.9955 21.2417 22.721 21.1548 22.5074H22.9689C23.3822 22.5074 23.7172 22.1725 23.7172 21.7596C23.7172 21.3467 23.3821 21.0118 22.9688 21.0118ZM10.6936 24.0006C10.273 24.0006 9.93084 23.6651 9.93084 23.2526C9.93084 22.8401 10.273 22.5046 10.6936 22.5046C11.1141 22.5046 11.4563 22.8401 11.4563 23.2526C11.4563 23.6651 11.1141 24.0006 10.6936 24.0006ZM19.03 24.0006C18.6094 24.0006 18.2672 23.6651 18.2672 23.2526C18.2672 22.8401 18.6094 22.5046 19.03 22.5046C19.4506 22.5046 19.7927 22.8401 19.7927 23.2526C19.7927 23.6651 19.4505 24.0006 19.03 24.0006Z" fill="#7469B6"/>
<path d="M14.9684 11.3391C11.9715 11.3391 9.53333 8.90792 9.53333 5.91955C9.53333 2.93119 11.9715 0.5 14.9684 0.5C17.9653 0.5 20.4035 2.93119 20.4035 5.91955C20.4035 8.90792 17.9653 11.3391 14.9684 11.3391ZM14.9684 1.9953C12.7968 1.9953 11.03 3.75571 11.03 5.91955C11.03 8.0834 12.7968 9.84381 14.9684 9.84381C17.14 9.84381 18.9068 8.0834 18.9068 5.91955C18.9068 3.75571 17.1401 1.9953 14.9684 1.9953Z" fill="#7469B6"/>
<path d="M13.6428 7.82306L12.4408 6.39661C12.1746 6.08077 12.2151 5.60911 12.5313 5.34316C12.8474 5.0772 13.3194 5.11764 13.5857 5.43359L14.2461 6.21735L16.3009 4.03406C16.584 3.73328 17.0577 3.7187 17.3587 4.00153C17.6599 4.28436 17.6744 4.75757 17.3913 5.05835L14.7604 7.85372C14.5255 8.10109 13.9241 8.15007 13.6428 7.82306Z" fill="#7469B6"/>
</g>
<defs>
<clipPath id="clip0_31_1568">
<rect width="25" height="25" fill="white" transform="translate(0 0.5)"/>
</clipPath>
</defs>
</svg>
