<svg width="25" height="26" viewBox="0 0 25 26" fill="none" xmlns="http://www.w3.org/2000/svg">
<g clip-path="url(#clip0_1_23)">
<path d="M22.9688 21.0117H6.60446C6.40324 21.0117 6.31703 20.7473 6.47461 20.6259L8.7526 18.8751H21.7686C22.694 18.8751 23.4615 18.1144 23.4795 17.1904L23.6254 9.68366C23.642 8.8279 23.0154 8.08484 22.1677 7.95814C21.7599 7.89714 21.3781 8.17752 21.317 8.58588C21.2559 8.99424 21.5376 9.37423 21.9464 9.43534C22.0526 9.4512 22.1311 9.5435 22.129 9.65044L21.9832 17.1614C21.9809 17.2768 21.8847 17.3795 21.7686 17.3795H9.09259L6.73121 7.16995L7.92974 7.34467C8.33837 7.40556 8.71938 7.12198 8.78054 6.71362C8.84165 6.30526 8.55988 5.92361 8.15109 5.86251L6.35586 5.59367L5.66959 2.92596C5.58471 2.59526 5.28644 2.3698 4.94474 2.3698H2.03111C1.61783 2.3698 1.28276 2.70471 1.28276 3.11761C1.28276 3.53051 1.61778 3.86542 2.03111 3.86542H4.36412L7.66021 17.8131L5.56051 19.4307C4.29377 20.4068 5.00622 22.5073 6.60441 22.5073H8.56891C8.48195 22.721 8.4342 22.9934 8.4342 23.2608C8.4342 24.4978 9.44775 25.5 10.6936 25.5C11.9395 25.5 12.953 24.4999 12.953 23.2629C12.953 22.9955 12.9053 22.721 12.8183 22.5073H16.9054C16.8184 22.721 16.7706 22.9934 16.7706 23.2608C16.7706 24.4978 17.7842 25.5 19.0301 25.5C20.2759 25.5 21.2895 24.4999 21.2895 23.2629C21.2895 22.9955 21.2418 22.721 21.1548 22.5073H22.9689C23.3823 22.5073 23.7173 22.1724 23.7173 21.7595C23.7173 21.3466 23.3822 21.0117 22.9688 21.0117ZM10.6936 24.0005C10.273 24.0005 9.93089 23.665 9.93089 23.2525C9.93089 22.84 10.2731 22.5045 10.6936 22.5045C11.1142 22.5045 11.4564 22.84 11.4564 23.2525C11.4564 23.665 11.1142 24.0005 10.6936 24.0005ZM19.03 24.0005C18.6094 24.0005 18.2673 23.665 18.2673 23.2525C18.2673 22.84 18.6095 22.5045 19.03 22.5045C19.4506 22.5045 19.7928 22.84 19.7928 23.2525C19.7928 23.665 19.4506 24.0005 19.03 24.0005Z" fill="#171616"/>
<path d="M14.9684 11.3391C11.9715 11.3391 9.53332 8.90792 9.53332 5.91955C9.53332 2.93119 11.9715 0.5 14.9684 0.5C17.9653 0.5 20.4035 2.93119 20.4035 5.91955C20.4035 8.90792 17.9653 11.3391 14.9684 11.3391ZM14.9684 1.9953C12.7968 1.9953 11.03 3.75571 11.03 5.91955C11.03 8.0834 12.7968 9.84381 14.9684 9.84381C17.14 9.84381 18.9068 8.0834 18.9068 5.91955C18.9068 3.75571 17.1401 1.9953 14.9684 1.9953Z" fill="#171616"/>
<path d="M13.6428 7.82306L12.4408 6.3966C12.1746 6.08076 12.2151 5.60911 12.5313 5.34315C12.8474 5.0772 13.3194 5.11763 13.5857 5.43358L14.2461 6.21734L16.301 4.03405C16.5841 3.73327 17.0577 3.71869 17.3587 4.00152C17.6599 4.28436 17.6744 4.75756 17.3913 5.05834L14.7605 7.85372C14.5255 8.10108 13.9242 8.15006 13.6428 7.82306Z" fill="#171616"/>
</g>
<defs>
<clipPath id="clip0_1_23">
<rect width="25" height="25" fill="white" transform="translate(0 0.5)"/>
</clipPath>
</defs>
</svg>
