<svg width="25" height="26" viewBox="0 0 25 26" fill="none" xmlns="http://www.w3.org/2000/svg">
<path d="M19.5312 12.2186C19.7385 12.2186 19.9372 12.1363 20.0837 11.9898C20.2302 11.8433 20.3125 11.6446 20.3125 11.4374V7.53115C20.3125 6.90955 20.0656 6.31341 19.626 5.87387C19.1865 5.43433 18.5904 5.1874 17.9688 5.1874H17.1875C17.0929 4.53182 16.7636 3.93285 16.2607 3.50179C15.7577 3.07072 15.1155 2.83686 14.4531 2.84365H10.5469C9.89125 2.84629 9.2584 3.08442 8.76366 3.51463C8.26891 3.94484 7.94522 4.53849 7.85156 5.1874H7.03125C6.40965 5.1874 5.81351 5.43433 5.37397 5.87387C4.93443 6.31341 4.6875 6.90955 4.6875 7.53115V20.8124C4.6875 21.434 4.93443 22.0301 5.37397 22.4697C5.81351 22.9092 6.40965 23.1561 7.03125 23.1561H11.7188C11.926 23.1561 12.1247 23.0738 12.2712 22.9273C12.4177 22.7808 12.5 22.5821 12.5 22.3749C12.5 22.1677 12.4177 21.969 12.2712 21.8225C12.1247 21.676 11.926 21.5936 11.7188 21.5936H7.03125C6.82405 21.5936 6.62534 21.5113 6.47882 21.3648C6.33231 21.2183 6.25 21.0196 6.25 20.8124V7.53115C6.25 7.32395 6.33231 7.12524 6.47882 6.97872C6.62534 6.83221 6.82405 6.7499 7.03125 6.7499H8.08594C8.307 7.21594 8.65537 7.60996 9.09083 7.88644C9.52628 8.16292 10.0311 8.31059 10.5469 8.3124H14.4531C14.9689 8.31059 15.4737 8.16292 15.9092 7.88644C16.3446 7.60996 16.693 7.21594 16.9141 6.7499H17.9688C18.176 6.7499 18.3747 6.83221 18.5212 6.97872C18.6677 7.12524 18.75 7.32395 18.75 7.53115V11.4374C18.75 11.6446 18.8323 11.8433 18.9788 11.9898C19.1253 12.1363 19.324 12.2186 19.5312 12.2186ZM14.4531 6.7499H10.5469C10.2361 6.7499 9.938 6.62643 9.71823 6.40667C9.49847 6.1869 9.375 5.88883 9.375 5.57802C9.375 5.26722 9.49847 4.96915 9.71823 4.74938C9.938 4.52961 10.2361 4.40615 10.5469 4.40615H14.4531C14.7639 4.40615 15.062 4.52961 15.2818 4.74938C15.5015 4.96915 15.625 5.26722 15.625 5.57802C15.625 5.88883 15.5015 6.1869 15.2818 6.40667C15.062 6.62643 14.7639 6.7499 14.4531 6.7499Z" fill="#171616"/>
<path d="M17.1875 10.6562C17.1875 10.449 17.1052 10.2503 16.9587 10.1038C16.8122 9.95731 16.6135 9.875 16.4062 9.875H8.59375C8.38655 9.875 8.18784 9.95731 8.04132 10.1038C7.89481 10.2503 7.8125 10.449 7.8125 10.6562C7.8125 10.8635 7.89481 11.0622 8.04132 11.2087C8.18784 11.3552 8.38655 11.4375 8.59375 11.4375H16.4062C16.6135 11.4375 16.8122 11.3552 16.9587 11.2087C17.1052 11.0622 17.1875 10.8635 17.1875 10.6562ZM14.8438 13.7812C14.8438 13.574 14.7614 13.3753 14.6149 13.2288C14.4684 13.0823 14.2697 13 14.0625 13H8.59375C8.38655 13 8.18784 13.0823 8.04132 13.2288C7.89481 13.3753 7.8125 13.574 7.8125 13.7812C7.8125 13.9885 7.89481 14.1872 8.04132 14.3337C8.18784 14.4802 8.38655 14.5625 8.59375 14.5625H14.0625C14.2697 14.5625 14.4684 14.4802 14.6149 14.3337C14.7614 14.1872 14.8438 13.9885 14.8438 13.7812ZM8.59375 16.125C8.38655 16.125 8.18784 16.2073 8.04132 16.3538C7.89481 16.5003 7.8125 16.699 7.8125 16.9062C7.8125 17.1135 7.89481 17.3122 8.04132 17.4587C8.18784 17.6052 8.38655 17.6875 8.59375 17.6875H11.7188C11.926 17.6875 12.1247 17.6052 12.2712 17.4587C12.4177 17.3122 12.5 17.1135 12.5 16.9062C12.5 16.699 12.4177 16.5003 12.2712 16.3538C12.1247 16.2073 11.926 16.125 11.7188 16.125H8.59375ZM18.3594 13.7812C17.355 13.7812 16.3732 14.0791 15.5381 14.6371C14.703 15.1951 14.0522 15.9882 13.6678 16.9161C13.2834 17.844 13.1829 18.865 13.3788 19.8501C13.5748 20.8351 14.0584 21.74 14.7686 22.4502C15.4788 23.1603 16.3836 23.644 17.3687 23.8399C18.3537 24.0359 19.3748 23.9353 20.3027 23.551C21.2306 23.1666 22.0237 22.5157 22.5817 21.6806C23.1397 20.8455 23.4375 19.8637 23.4375 18.8594C23.4354 17.5132 22.8998 16.2228 21.9479 15.2709C20.996 14.319 19.7055 13.7833 18.3594 13.7812ZM18.3594 22.375C17.6641 22.375 16.9843 22.1688 16.4062 21.7825C15.8281 21.3962 15.3775 20.8471 15.1114 20.2047C14.8453 19.5623 14.7757 18.8555 14.9113 18.1735C15.047 17.4915 15.3818 16.8651 15.8735 16.3735C16.3651 15.8818 16.9915 15.547 17.6735 15.4113C18.3555 15.2757 19.0623 15.3453 19.7047 15.6114C20.3471 15.8775 20.8962 16.3281 21.2825 16.9062C21.6688 17.4843 21.875 18.1641 21.875 18.8594C21.8729 19.7911 21.5019 20.6842 20.843 21.343C20.1842 22.0019 19.2911 22.3729 18.3594 22.375Z" fill="black"/>
<path d="M19.5313 17.1326L17.7422 18.9295L17.125 18.3045C16.9779 18.1574 16.7784 18.0747 16.5703 18.0747C16.3623 18.0747 16.1628 18.1574 16.0156 18.3045C15.8685 18.4516 15.7859 18.6511 15.7859 18.8592C15.7859 19.0672 15.8685 19.2667 16.0156 19.4138L17.1875 20.5857C17.2602 20.6589 17.3466 20.7171 17.4418 20.7567C17.537 20.7964 17.6391 20.8168 17.7422 20.8168C17.8453 20.8168 17.9475 20.7964 18.0427 20.7567C18.1379 20.7171 18.2243 20.6589 18.2969 20.5857L20.6406 18.242C20.7878 18.0949 20.8704 17.8953 20.8704 17.6873C20.8704 17.4792 20.7878 17.2797 20.6406 17.1326C20.4935 16.9855 20.294 16.9028 20.086 16.9028C19.8779 16.9028 19.6784 16.9855 19.5313 17.1326Z" fill="black"/>
</svg>
