<svg width="25" height="26" viewBox="0 0 25 26" fill="none" xmlns="http://www.w3.org/2000/svg">
<g clip-path="url(#clip0_31_1598)">
<path d="M16.801 15.7097C17.0623 15.7097 17.3129 15.8135 17.4977 15.9983C17.6825 16.1831 17.7863 16.4337 17.7863 16.695V19.1583C17.7863 19.4196 17.6825 19.6703 17.4977 19.855C17.3129 20.0398 17.0623 20.1436 16.801 20.1436C16.5397 20.1436 16.289 20.0398 16.1043 19.855C15.9195 19.6703 15.8157 19.4196 15.8157 19.1583V16.695C15.8157 16.4337 15.9195 16.1831 16.1043 15.9983C16.289 15.8135 16.5397 15.7097 16.801 15.7097ZM17.7863 21.6216C17.7863 21.8829 17.6825 22.1336 17.4977 22.3183C17.3129 22.5031 17.0623 22.6069 16.801 22.6069C16.5397 22.6069 16.289 22.5031 16.1043 22.3183C15.9195 22.1336 15.8157 21.8829 15.8157 21.6216C15.8157 21.3603 15.9195 21.1097 16.1043 20.9249C16.289 20.7401 16.5397 20.6363 16.801 20.6363C17.0623 20.6363 17.3129 20.7401 17.4977 20.9249C17.6825 21.1097 17.7863 21.3603 17.7863 21.6216Z" fill="#171616"/>
<path fill-rule="evenodd" clip-rule="evenodd" d="M17.2936 13.0195V3.14688C17.2936 1.78641 16.1908 0.683594 14.8303 0.683594H5.96244C4.60196 0.683594 3.49915 1.78641 3.49915 3.14688V19.4046C3.49915 20.7651 4.60196 21.8679 5.96244 21.8679H11.2694C12.2719 23.9105 14.3721 25.3165 16.8009 25.3165C20.202 25.3165 22.9591 22.5593 22.9591 19.1583C22.9591 15.923 20.4643 13.2705 17.2936 13.0195ZM14.8303 2.65423H5.96244C5.83178 2.65423 5.70647 2.70613 5.61407 2.79852C5.52168 2.89091 5.46978 3.01622 5.46978 3.14688V19.4046C5.46978 19.5353 5.52168 19.6606 5.61407 19.753C5.70647 19.8454 5.83178 19.8973 5.96244 19.8973H10.6865C10.6573 19.652 10.6426 19.4053 10.6427 19.1583C10.6427 16.2666 12.6355 13.8405 15.3229 13.1786V3.14688C15.3229 3.01622 15.271 2.89091 15.1786 2.79852C15.0863 2.70613 14.9609 2.65423 14.8303 2.65423ZM12.6133 19.1583C12.6133 21.4711 14.4881 23.3459 16.8009 23.3459C19.1137 23.3459 20.9885 21.4711 20.9885 19.1583C20.9885 16.8455 19.1137 14.9707 16.8009 14.9707C14.4881 14.9707 12.6133 16.8455 12.6133 19.1583Z" fill="black"/>
</g>
<defs>
<clipPath id="clip0_31_1598">
<rect width="25" height="25" fill="white" transform="translate(0 0.5)"/>
</clipPath>
</defs>
</svg>
